<svg width="90" height="90" fill="none" xmlns="http://www.w3.org/2000/svg"><path d="M78.44 18.11 51.57 5.28c-1.8-.86-4.18-1.29-6.56-1.29s-4.76.43-6.56 1.29L11.58 18.11c-3.61 1.72-6.56 6.41-6.56 10.41v30.91c0 4 2.85 8.89 6.32 10.87l27.35 15.54c1.74.99 4.03 1.48 6.32 1.48s4.58-.49 6.32-1.48L78.68 70.3C82.16 68.32 85 63.43 85 59.43V28.52c0-4-2.95-8.68-6.56-10.41z" fill="#81B64C"/><path d="M79.76 27.19 51.97 42.5a9.699 9.699 0 0 0-5.02 8.5v32.21c0 .95-.69 1.8-1.64 1.89-1.08.1-2-.75-2-1.81V51.1c0-3.52-1.9-6.76-4.97-8.47l-28.1-15.7c-.88-.49-1.19-1.6-.7-2.47.49-.88 1.6-1.19 2.47-.7l28.3 15.81a9.737 9.737 0 0 0 9.42.03l28.28-15.58c.88-.48 1.99-.17 2.47.71.49.88.17 1.99-.71 2.47l-.01-.01z" fill="#B2E068"/><path d="m15.87 64.82 18.79 10.34c0-2.4-.92-4.87-2.53-6.78-4.38-5.19-4.44-8.19-4.55-9.24l-.02-1.18 2.66 1.46c.31-.41.46-.98.46-1.64l-3.1-3.63.23-.03c1.24-.17 1.98-1.18 1.98-2.7 0-2.52-2.03-5.69-4.53-7.07-2.5-1.38-4.53-.44-4.53 2.08 0 1.52.74 3.34 1.98 4.88l.23.29-3.1.22c0 .67.16 1.41.46 2.15l2.65 1.46-.02 1.15c-.1.94-.16 3.87-4.55 4.24-1.61.14-2.53 1.59-2.53 3.99l.02.01z" fill="#fff"/><path d="M17.13 64.82c0-2.4.92-3.86 2.53-3.99 4.39-.37 4.45-3.3 4.55-4.24l.02-1.15-2.65-1.46c-.31-.75-.46-1.49-.46-2.16l3.1-.22-.23-.29c-1.24-1.54-1.98-3.36-1.98-4.88s.7-2.4 1.77-2.65c-1.76-.34-3.02.66-3.02 2.65 0 1.52.74 3.34 1.98 4.88l.23.29-3.1.22c0 .67.16 1.41.46 2.15l2.65 1.46-.02 1.15c-.1.94-.16 3.87-4.55 4.24-1.61.14-2.53 1.59-2.53 3.99l18.79 10.34c0-.24-.02-.47-.03-.71l-17.5-9.63-.01.01z" fill="#D1CCC5"/><path d="M37.02 23.03c2.44 1.75 6.12 4.61 6.91 5.14l13.98-7.03c-1.04-.41-6.61-2.31-10.03-3.58l-10.86 5.46v.01zM36.01 22.21l10.28-5.17c1.1-1.06.54-1.9-.46-2.57l-3.91-2.33c-1.25.19-2.35.51-3.29.99l2.16 1.81-2.26 1.14-3.72-1.5s-1.1.4-1.91.8c-.81.4-1.6.96-1.6.96l2.91 1.91-2.26 1.14-3.54-1.12c-.94.47-1.6 1.03-1.98 1.66l4.53 2.01c1.31.51 2.94.81 5.04.26l.01.01zM57.46 22.69l-10.51 5.28c-5.24 2.64-1.09 4.75-1.09 4.75l1.74.89 20.94-10.53-1.74-.89s-4.1-2.14-9.34.5zM58.79 60.84c.87-1.36.91-2.76 2.75-3.77 1.42-.78 2.68-2.84 3.39-4.01l.7-1.25c.27.2 1.03.91.69 2.34-.1.44-.26.87-.47 1.31-.38.79-.91 1.6-1.54 2.49-1.35 1.9-3.72 4.52-3.98 7.44l12.98-7.03c.23-1.31 1.52-5.34 1.52-7.51 0-8.2-5.18-8.99-9.81-6.82l-2.37-1.24c-.34.18-.68.75-.77 1.22l-.27 1.52c-.27.86-.73 1.59-1.43 2.59-.7 1-.88 1.68-1.03 2.18-.55 1.8-.6 2.62-1.55 4.63l-2.14 4.38c-.55 1.03-.48 1.98.11 2.2.78.29 3.03-.34 3.23-.65l-.01-.02zM71.59 60.66l-10.34 5.6c-5.16 2.79-5.14 7.14-5.14 7.14v1.84l20.61-11.16v-1.84s.02-4.37-5.14-1.58h.01z" fill="#fff"/><path d="m64.84 51.32-.7 1.25c-.71 1.17-1.97 3.24-3.39 4.01-1.84 1.01-1.89 2.41-2.75 3.77-.17.27-1.88.78-2.85.72.08.2.21.35.4.42.78.29 3.03-.34 3.23-.65.87-1.36.91-2.76 2.75-3.77 1.42-.78 2.68-2.84 3.39-4.01l.53-.94c-.18-.44-.47-.69-.61-.8zM74.04 50.35c0 2.18-1.29 6.2-1.52 7.51l-12.01 6.51c-.08.33-.15.67-.18 1.02l12.98-7.03c.23-1.31 1.52-5.34 1.52-7.51 0-4.14-1.32-6.39-3.22-7.32 1.47 1.14 2.43 3.29 2.43 6.83v-.01zM75.23 59.84c.71.74.7 1.91.7 1.91v1.84L56.1 74.33v.92l20.61-11.16v-1.84s0-1.92-1.49-2.4l.01-.01zM56.92 21.64l.99-.5c-1.04-.41-6.61-2.31-10.03-3.58l-10.86 5.46c.17.12.35.26.54.39l10.09-5.07c2.91 1.07 7.36 2.61 9.27 3.3zM34.57 15.35l3.72 1.5 2.97-1.44-.48-.48-2.26 1.14-3.72-1.5s-1.1.4-1.91.8c-.81.41-1.6.96-1.6.96l.48.31c.26-.16.57-.34.89-.5.81-.41 1.91-.8 1.91-.8v.01zM45.59 15.25c.58.39 1.02.85 1.06 1.36.57-.86.03-1.56-.82-2.14l-3.91-2.33c-1.25.19-2.35.51-3.29.99l.53.44c.76-.3 1.6-.51 2.53-.65l3.91 2.33h-.01zM28.17 19.05l3.54 1.12 2.94-1.46-.44-.46-2.26 1.14-3.54-1.12c-.94.47-1.6 1.03-1.98 1.66l.28.13c.37-.37.86-.71 1.46-1.01zM46.72 28.75l10.51-5.28c5.24-2.64 9.34-.5 9.34-.5l1.09.56.88-.44s-.87-.45-1.74-.89c0 0-4.1-2.14-9.34.5l-10.51 5.28c-1.99 1-2.63 1.93-2.65 2.69.33-.59 1.06-1.23 2.42-1.92z" fill="#D1CCC5"/></svg>